<?xml version="1.0" encoding="UTF-8"?>
<svg width="24px" height="24px" viewBox="0 0 24 24" version="1.1" xmlns="http://www.w3.org/2000/svg" xmlns:xlink="http://www.w3.org/1999/xlink">
    <title>delete-oulined</title>
    <defs>
        <filter id="filter-1">
            <feColorMatrix in="SourceGraphic" type="matrix" values="0 0 0 0 0.301961 0 0 0 0 0.356863 0 0 0 0 0.411765 0 0 0 1.000000 0"></feColorMatrix>
        </filter>
        <path d="M10.8,0 C12.2911688,0 13.5,1.20883118 13.5,2.7 L13.5,2.7 L13.5,3.6 L15.286,3.6 L15.3,3.6 C15.3047794,3.6 15.3095501,3.60003725 15.3143118,3.60011149 L17.1,3.6 C17.5970563,3.6 18,4.00294373 18,4.5 C18,4.99705627 17.5970563,5.4 17.1,5.4 L17.1,5.4 L16.2,5.4 L16.2,17.1 C16.2,18.5338162 15.0823676,19.7065953 13.6707523,19.7946881 L13.5,19.8 L4.5,19.8 C3.00883118,19.8 1.8,18.5911688 1.8,17.1 L1.8,17.1 L1.799,5.4 L0.9,5.4 C0.441178823,5.4 0.0625482213,5.05666333 0.0070122777,4.61289409 L0,4.5 C0,4.00294373 0.402943725,3.6 0.9,3.6 L0.9,3.6 L2.685,3.6 L2.7,3.6 C2.70473709,3.6 2.70946564,3.6000366 2.71418536,3.60010953 L4.5,3.6 L4.5,2.7 C4.5,1.26618382 5.61763237,0.0934046727 7.02924775,0.00531192183 L7.2,0 Z M14.399,5.4 L3.599,5.4 L3.6,17.1 C3.6,17.5588212 3.94333667,17.9374518 4.38710591,17.9929877 L4.5,18 L13.5,18 C13.9970563,18 14.4,17.5970563 14.4,17.1 L14.4,17.1 L14.399,5.4 Z M7.2,8.1 C7.69705627,8.1 8.1,8.50294373 8.1,9 L8.1,9 L8.1,14.4 C8.1,14.8970563 7.69705627,15.3 7.2,15.3 C6.70294373,15.3 6.3,14.8970563 6.3,14.4 L6.3,14.4 L6.3,9 C6.3,8.50294373 6.70294373,8.1 7.2,8.1 Z M10.8,8.1 C11.2970563,8.1 11.7,8.50294373 11.7,9 L11.7,9 L11.7,14.4 C11.7,14.8970563 11.2970563,15.3 10.8,15.3 C10.3029437,15.3 9.9,14.8970563 9.9,14.4 L9.9,14.4 L9.9,9 C9.9,8.50294373 10.3029437,8.1 10.8,8.1 Z M10.8,1.8 L7.2,1.8 C6.70294373,1.8 6.3,2.20294373 6.3,2.7 L6.3,2.7 L6.3,3.6 L11.7,3.6 L11.7,2.7 C11.7,2.24117882 11.3566633,1.86254822 10.9128941,1.80701228 L10.8,1.8 Z" id="path-2"></path>
    </defs>
    <g id="UI---Screens-v.1.3" stroke="none" stroke-width="1" fill="none" fill-rule="evenodd">
        <g id="5.1.1.1---advanced-search-criteria-(desktop)" transform="translate(-1304.000000, -661.000000)">
            <g id="trash-2" transform="translate(1304.000000, 661.000000)" filter="url(#filter-1)">
                <g transform="translate(3.000000, 2.000000)">
                    <mask id="mask-3" fill="white">
                        <use xlink:href="#path-2"></use>
                    </mask>
                    <use id="Combined-Shape" fill="#000000" fill-rule="nonzero" xlink:href="#path-2"></use>
                </g>
            </g>
        </g>
    </g>
</svg>