<?xml version="1.0" encoding="UTF-8"?>
<svg width="24px" height="24px" viewBox="0 0 24 24" version="1.1" xmlns="http://www.w3.org/2000/svg" xmlns:xlink="http://www.w3.org/1999/xlink">
    <title>C2E2981B-282D-40AE-8E4A-FAE6D61382F4</title>
    <g id="Symbols" stroke="none" stroke-width="1" fill="none" fill-rule="evenodd">
        <g id="Icons/Actions/Extend">
            <g id="bounding-box">
                <polygon id="shape" points="0 0 24 0 24 24 0 24"></polygon>
            </g>
            <path d="M19,18 C19.5522925,18 20,18.4477153 20,19 C20,19.5128358 19.6139675,19.9355072 19.1166289,19.9932723 L19,20 L14.7519701,20 C14.4886782,20 14.2286414,20.0519803 13.9865736,20.1522527 L13.8086218,20.2364542 L11.1741386,21.6456805 C10.6370897,21.9329564 10.0425803,22.093256 9.43621775,22.1158221 L9.17575534,22.1170293 L4.97208607,21.9996101 C4.42001665,21.9841894 3.98497691,21.5241478 4.00039761,20.9720783 C4.01471684,20.4594425 4.4124082,20.0477148 4.91116588,20.0038587 L5.02792939,20.0003899 L9.23159866,20.1178091 C9.52151219,20.1259071 9.80900492,20.070844 10.0743782,19.9572661 L10.2307903,19.8821347 L12.8652735,18.4729083 C13.3731315,18.2012471 13.9327829,18.0429226 14.505723,18.0075862 L14.7519701,18 L19,18 Z M18.0000077,2 C19.1045772,2 20.0000077,2.8954305 20.0000077,4 L20.0000077,16 C20.0000077,16.5522847 19.5522925,17 19.0000077,17 L14.7082117,17 C14.2424764,17 13.7831372,17.1084353 13.3665709,17.3167184 L10.6334446,18.6832816 C10.2168783,18.8915647 9.75753908,19 9.2918038,19 L5.00000773,19 C4.44772298,19 4.00000773,18.5522847 4.00000773,18 L4.00000773,4 C4.00000773,2.8954305 4.89543823,2 6.00000773,2 L18.0000077,2 Z M12.0000077,6 C11.447723,6 11.0000077,6.39175084 11.0000077,6.875 L11,9 L9.87500773,9 C9.39175857,9 9.00000773,9.44771525 9.00000773,10 C9.00000773,10.5522847 9.39175857,11 9.87500773,11 L11,11 L11.0000077,12.125 C11.0000077,12.6082492 11.447723,13 12.0000077,13 C12.5522925,13 13.0000077,12.6082492 13.0000077,12.125 L13,11 L15.1250077,11 C15.6082569,11 16.0000077,10.5522847 16.0000077,10 C16.0000077,9.44771525 15.6082569,9 15.1250077,9 L13,9 L13.0000077,6.875 C13.0000077,6.39175084 12.5522925,6 12.0000077,6 Z" id="Combined-Shape" fill="#1F262A"></path>
        </g>
    </g>
</svg>