<svg id="Layer_1" data-name="Layer 1" xmlns="http://www.w3.org/2000/svg" viewBox="0 0 576 147.43"><defs><style>.cls-1{fill:#fff;}</style></defs><path class="cls-1" d="M73.59,147.17H103A44.15,44.15,0,0,1,147.17,103V73.59A73.58,73.58,0,0,0,73.59,147.17Z"/><path class="cls-1" d="M147.17,117.74a29.43,29.43,0,0,0-29.43,29.43h29.43Z"/><path class="cls-1" d="M143,.06l-.85,0c-1.15,0-2.3.09-3.44.16l-.65,0c-1.25.08-2.49.17-3.73.27l-.31,0c-1.37.12-2.74.26-4.1.42h0l-2.51,30.08a116.8,116.8,0,0,0-21.17,5.66L89,11.94h0c-1.27.55-2.54,1.12-3.79,1.7l-.35.16c-1.19.56-2.37,1.13-3.55,1.72l-.27.13q-3.83,1.93-7.51,4.06l-.07,0c-1.12.65-2.24,1.32-3.34,2l-.84.53c-.86.53-1.7,1.07-2.55,1.62l-1,.67c-.81.54-1.61,1.09-2.41,1.65l-.94.65c-1.08.76-2.15,1.54-3.21,2.33h0L72,56.54A118.62,118.62,0,0,0,56.54,72L29.22,59.15h0c-.79,1.06-1.57,2.13-2.33,3.21l-.65.94c-.56.8-1.11,1.6-1.65,2.41l-.67,1q-.82,1.28-1.62,2.55l-.53.84c-.68,1.1-1.35,2.22-2,3.34l0,.07c-1.42,2.46-2.77,5-4.06,7.51l-.13.27c-.59,1.18-1.16,2.36-1.72,3.55-.05.12-.11.23-.16.35C13.07,86.47,12.5,87.74,12,89h0l24.81,17.22a116.8,116.8,0,0,0-5.66,21.17L1,129.92H1c-.16,1.36-.3,2.73-.42,4.1l0,.31c-.1,1.24-.19,2.48-.27,3.73,0,.22,0,.43,0,.65-.07,1.14-.12,2.29-.16,3.44l0,.85Q0,145.08,0,147.17H58.87a88.3,88.3,0,0,1,88.3-88.3V0Q145.09,0,143,.06Z"/><polygon class="cls-1" points="176.22 29.69 161.89 44.03 161.89 133.1 176.22 147.43 207.79 147.43 222.12 133.1 222.12 108.53 200.28 108.53 200.28 125.08 195.33 129.86 188.68 129.86 183.9 125.08 183.9 52.73 188.68 47.78 195.33 47.78 200.28 52.73 200.28 68.43 222.12 68.43 222.12 44.03 207.79 29.69 176.22 29.69"/><polygon class="cls-1" points="232.16 29.69 232.16 147.43 284.2 147.43 284.2 128.15 254.17 128.15 254.17 97.09 281.13 97.09 281.13 77.82 254.17 77.82 254.17 48.98 283.86 48.98 283.86 29.69 232.16 29.69"/><polygon class="cls-1" points="307.76 29.69 293.43 44.03 293.43 85.83 305.54 97.95 328.58 97.95 332.33 101.7 332.33 124.57 327.55 129.35 319.7 129.35 314.75 124.57 314.75 112.11 292.91 112.11 292.91 133.1 307.25 147.43 340.01 147.43 354.34 133.1 354.34 90.44 342.23 78.33 319.02 78.33 315.27 74.57 315.27 52.73 320.22 47.78 327.38 47.78 332.16 52.73 332.16 65.02 354.17 65.02 354.17 44.03 339.84 29.69 307.76 29.69"/><polygon class="cls-1" points="423.91 29.69 411.28 123.89 398.48 29.69 365.38 29.69 365.38 147.43 383.29 147.43 383.29 48.3 398.48 147.43 421.86 147.43 437.05 48.3 437.05 147.43 457.35 147.43 457.35 29.69 423.91 29.69"/><polygon class="cls-1" points="468.39 29.69 468.39 46.42 481.53 46.42 481.53 130.71 468.39 130.71 468.39 147.43 516.67 147.43 516.67 130.71 503.54 130.71 503.54 46.42 516.67 46.42 516.67 29.69 468.39 29.69"/><polygon class="cls-1" points="527.71 29.69 527.71 46.42 540.85 46.42 540.85 130.71 527.71 130.71 527.71 147.43 576 147.43 576 130.71 562.86 130.71 562.86 46.42 576 46.42 576 29.69 527.71 29.69"/></svg>