<?xml version="1.0" encoding="UTF-8"?>
<svg width="24px" height="24px" viewBox="0 0 24 24" version="1.1" xmlns="http://www.w3.org/2000/svg" xmlns:xlink="http://www.w3.org/1999/xlink">
    <title>8557192B-53E1-4C76-A2BF-BF55D1D8967B</title>
    <g id="Symbols" stroke="none" stroke-width="1" fill="none" fill-rule="evenodd">
        <g id="Icons/File/New-File-Filled">
            <g id="bounding-box">
                <polygon id="shape" points="0 0 24 0 24 24 0 24"></polygon>
            </g>
            <path d="M18,2 C19.1045695,2 20,2.8954305 20,4 L20,19 C20,19.5522847 19.5522847,20 19,20 L14.7082039,20 C14.2424686,20 13.7831294,20.1084353 13.3665631,20.3167184 L10.6334369,21.6832816 C10.2168706,21.8915647 9.75753135,22 9.29179607,22 L5,22 C4.44771525,22 4,21.5522847 4,21 L4,4 C4,2.8954305 4.8954305,2 6,2 L18,2 Z M12,7 C11.4477153,7 11,7.39175084 11,7.875 L11,10 L9.875,10 C9.39175084,10 9,10.4477153 9,11 C9,11.5522847 9.39175084,12 9.875,12 L11,12 L11,13.125 C11,13.6082492 11.4477153,14 12,14 C12.5522847,14 13,13.6082492 13,13.125 L13,12 L15.125,12 C15.6082492,12 16,11.5522847 16,11 C16,10.4477153 15.6082492,10 15.125,10 L13,10 L13,7.875 C13,7.39175084 12.5522847,7 12,7 Z" id="Combined-Shape" fill="#1F262A"></path>
        </g>
    </g>
</svg>