<?xml version="1.0" encoding="UTF-8"?>
<svg width="24px" height="24px" viewBox="0 0 24 24" version="1.1" xmlns="http://www.w3.org/2000/svg" xmlns:xlink="http://www.w3.org/1999/xlink">
    <title>7F9DEF18-3494-472C-91F3-34F921C13965</title>
    <g id="Symbols" stroke="none" stroke-width="1" fill="none" fill-rule="evenodd">
        <g id="Icons/File/Profile">
            <g id="bounding-box">
                <polygon id="shape" points="0 0 24 0 24 24 0 24"></polygon>
            </g>
            <path d="M6,2 L18,2 C19.1045695,2 20,2.8954305 20,4 L20,19 C20,19.5522847 19.5522847,20 19,20 L14.7082039,20 C14.2424686,20 13.7831294,20.1084353 13.3665631,20.3167184 L10.6334369,21.6832816 C10.2168706,21.8915647 9.75753135,22 9.29179607,22 L5,22 C4.44771525,22 4,21.5522847 4,21 L4,4 C4,2.8954305 4.8954305,2 6,2 Z" id="Combined-Shape" fill="#1F262A"></path>
        </g>
    </g>
</svg>